<?xml version="1.0" standalone="no"?>
<!DOCTYPE svg PUBLIC "-//W3C//DTD SVG 20010904//EN"
 "http://www.w3.org/TR/2001/REC-SVG-20010904/DTD/svg10.dtd">
<svg version="1.0" xmlns="http://www.w3.org/2000/svg"
 width="400.000000pt" height="400.000000pt" viewBox="0 0 400.000000 400.000000"
 preserveAspectRatio="xMidYMid meet">
<metadata>
Created by potrace 1.11, written by Peter Selinger 2001-2013
</metadata>
<g transform="translate(0.000000,400.000000) scale(0.100000,-0.100000)"
fill="#000000" stroke="none">
<path d="M0 2000 l0 -2000 1155 0 c999 0 1155 2 1155 14 0 8 -4 18 -10 21 -6
4 -5 13 2 25 9 14 9 22 -1 33 -8 10 -9 17 -1 22 5 3 10 0 10 -7 1 -27 30 -51
60 -51 24 0 30 -4 25 -16 -5 -13 -4 -14 6 -3 19 18 34 15 49 -13 l13 -25 199
0 c152 0 198 3 198 13 0 8 3 9 8 1 11 -17 179 -19 199 -2 19 16 80 39 113 43
14 1 36 7 50 13 24 10 24 11 3 11 -14 1 -23 7 -23 16 0 8 -20 24 -45 36 -25
12 -48 25 -51 30 -3 5 -16 9 -29 9 -20 0 -24 5 -23 32 1 35 21 63 38 53 18
-11 91 -15 85 -5 -8 13 -7 13 60 -10 41 -14 62 -17 69 -10 12 12 -8 30 -36 30
-35 0 -48 11 -37 31 5 11 15 17 21 13 5 -4 44 -6 87 -5 71 1 74 0 51 -14 -25
-14 -25 -14 15 -16 22 -1 48 -2 58 -1 20 2 23 -14 5 -22 -7 -3 -3 -3 9 -1 12
3 24 1 28 -5 3 -6 -3 -10 -15 -10 -12 0 -20 -5 -18 -12 3 -7 26 -11 61 -11 47
0 60 -4 68 -19 6 -11 8 -24 5 -31 -2 -7 -5 -3 -6 8 -1 18 -1 19 -11 3 -6 -11
-22 -18 -40 -18 -17 0 -32 -6 -35 -15 -4 -8 -10 -13 -15 -10 -4 3 -35 7 -68 9
-42 3 -65 0 -78 -10 -17 -14 -16 -14 4 -5 34 17 41 12 8 -6 -16 -9 -43 -18
-58 -19 -16 -2 -36 -9 -45 -14 -13 -8 -7 -9 24 -5 23 4 93 0 155 -8 139 -18
159 -18 183 4 10 10 24 15 32 12 18 -7 18 -43 0 -43 -8 0 -16 -6 -19 -13 -3
-9 -7 -9 -20 1 -13 11 -20 11 -41 -3 -14 -10 -26 -19 -26 -21 0 -2 99 -4 220
-4 l220 0 -2 1940 c-3 1926 -3 1939 -23 1955 -20 16 -20 16 2 10 21 -6 23 -3
22 44 -1 43 -5 51 -21 51 -11 0 -16 -4 -12 -11 5 -8 1 -8 -14 0 -14 8 -198 11
-601 11 -579 0 -581 0 -569 -20 7 -11 27 -23 45 -26 23 -4 36 -15 47 -39 22
-46 20 -48 -16 -14 -18 16 -39 29 -48 29 -13 0 -13 -2 0 -11 11 -8 12 -12 3
-16 -7 -2 -13 -12 -13 -20 0 -13 3 -13 15 -3 13 11 17 8 26 -19 6 -17 14 -31
18 -31 14 0 63 -86 68 -120 3 -19 10 -40 15 -46 4 -6 5 -19 2 -28 -4 -10 0
-31 9 -49 21 -43 31 -70 28 -81 -1 -5 1 -16 5 -25 7 -15 11 -35 16 -88 2 -17
9 -23 28 -24 17 -1 19 -3 8 -6 -20 -5 -25 -23 -7 -23 8 0 8 -5 -1 -15 -7 -9
-8 -15 -2 -15 15 0 24 -31 12 -45 -7 -8 -4 -19 10 -35 23 -27 25 -34 8 -27
-22 8 -10 -111 12 -123 9 -5 20 -6 24 -3 3 3 6 3 6 -2 0 -4 -7 -13 -16 -20
-15 -11 -15 -13 3 -31 11 -10 27 -48 36 -83 14 -58 14 -67 0 -85 -14 -20 -15
-19 -9 21 3 24 2 44 -4 48 -9 6 -15 -22 -10 -54 1 -8 -4 -18 -12 -23 -10 -7
-9 -11 6 -23 15 -11 17 -21 12 -50 -5 -25 -4 -35 3 -30 6 3 11 1 11 -4 0 -6 9
-11 19 -11 11 0 23 -5 27 -11 5 -9 -1 -10 -20 -5 -30 7 -34 -1 -8 -20 14 -11
15 -13 1 -14 -27 0 -55 36 -68 86 -7 27 -19 64 -27 82 -8 18 -14 44 -14 57 0
13 -5 27 -10 30 -5 3 -10 14 -10 23 0 12 3 13 12 4 16 -16 28 -15 28 2 0 8 5
18 11 22 9 5 10 -1 5 -20 -4 -18 -3 -25 4 -21 13 8 13 65 0 65 -5 0 -10 9 -10
21 0 11 -4 18 -9 14 -5 -3 -12 3 -14 12 -4 17 -5 17 -6 1 -1 -11 -9 -18 -21
-18 -19 0 -22 7 -49 115 -5 22 -19 74 -31 115 -12 41 -25 91 -29 110 -5 19
-14 48 -20 63 -6 16 -9 33 -6 37 5 8 -11 71 -32 130 -14 37 -11 58 8 63 10 3
19 11 19 19 0 10 -3 9 -10 -2 -9 -13 -11 -13 -20 0 -5 8 -10 22 -10 31 0 9 -7
20 -16 23 -13 5 -14 9 -5 20 10 11 9 16 -4 23 -22 12 -47 123 -33 141 8 9 8
16 0 24 -7 7 -12 20 -12 30 0 16 -11 18 -121 18 -108 0 -120 -2 -109 -15 7 -9
15 -13 18 -10 5 5 31 -25 32 -37 0 -5 -4 -8 -10 -8 -5 0 -10 7 -10 15 0 8 -4
15 -9 15 -5 0 -7 -9 -4 -20 3 -11 12 -20 21 -20 12 0 13 -3 4 -12 -17 -17 -15
-26 8 -33 11 -3 20 -12 20 -19 0 -8 7 -19 15 -26 8 -7 15 -16 15 -21 0 -14
-28 -11 -32 3 -3 8 -9 4 -17 -10 -6 -12 -18 -22 -26 -22 -8 0 -15 -4 -15 -10
0 -5 6 -10 14 -10 8 0 18 -5 22 -12 5 -8 2 -9 -9 -5 -15 6 -16 1 -12 -33 4
-33 2 -39 -13 -37 -10 0 -18 9 -18 18 0 10 4 15 8 13 4 -3 8 2 8 10 0 9 -8 16
-19 16 -10 0 -21 9 -24 20 -3 11 -1 18 4 14 5 -3 9 2 9 10 0 9 -5 15 -12 14
-7 -2 -13 8 -14 22 -1 14 -4 32 -8 42 -6 12 0 18 23 23 24 5 31 12 30 28 -1
17 -2 18 -6 5 -5 -18 -20 -22 -46 -12 -11 4 -14 16 -11 45 3 24 1 39 -6 39 -6
0 -8 5 -5 10 4 6 -37 10 -114 10 -128 0 -135 -3 -112 -48 34 -64 85 -181 88
-202 6 -44 35 -155 43 -165 4 -5 11 -31 14 -57 5 -33 14 -53 29 -63 12 -8 22
-19 22 -23 1 -4 9 -22 18 -39 13 -25 14 -31 3 -27 -7 3 -21 23 -31 44 -9 21
-25 40 -34 43 -10 2 -25 20 -34 39 -17 36 -17 36 -82 35 -68 0 -72 -2 -54 -27
7 -10 12 -11 15 -4 3 6 16 9 30 6 19 -3 22 -7 13 -18 -9 -11 -8 -14 3 -14 8 0
25 -10 38 -22 14 -13 29 -22 34 -20 4 2 6 -4 2 -13 -3 -9 -2 -13 3 -10 6 3 18
-8 27 -25 10 -16 22 -30 26 -30 4 0 23 -27 42 -60 20 -33 45 -70 57 -83 11
-12 27 -35 35 -52 7 -16 18 -37 23 -45 25 -39 72 -151 67 -159 -5 -8 12 -28
65 -76 20 -18 22 -18 16 -2 -4 10 -7 23 -7 28 0 5 -9 9 -20 9 -11 0 -20 5 -20
10 0 16 19 11 41 -11 13 -13 19 -28 16 -41 -5 -17 28 -73 63 -108 3 -3 17 -23
32 -45 37 -55 44 -90 24 -120 -9 -13 -16 -35 -16 -47 0 -13 -11 -47 -25 -75
-17 -39 -28 -51 -39 -47 -9 3 -16 1 -16 -6 0 -6 -4 -9 -9 -6 -18 12 -18 -21 0
-35 23 -16 25 -31 4 -23 -8 4 -15 1 -15 -5 0 -6 -13 -23 -30 -37 -16 -15 -27
-31 -24 -36 3 -5 2 -7 -3 -6 -13 5 -50 -37 -45 -51 2 -7 -5 -15 -16 -18 -11
-2 -24 -14 -30 -26 -6 -12 -23 -42 -37 -67 -15 -25 -20 -37 -12 -28 8 10 17
15 20 11 4 -3 7 3 7 14 0 12 8 23 20 26 12 3 20 14 20 26 0 25 58 84 76 77 8
-3 22 6 33 19 10 14 27 25 37 25 16 0 17 2 4 10 -13 8 -12 10 3 10 9 0 17 5
17 10 0 6 7 10 15 10 8 0 15 -4 15 -10 0 -5 -7 -10 -15 -10 -8 0 -15 -4 -15
-9 0 -20 13 -41 25 -41 8 0 10 -9 7 -25 -2 -14 -8 -22 -13 -19 -14 9 -5 -112
10 -130 11 -13 11 -16 0 -16 -11 0 -11 -2 -1 -8 13 -9 7 -42 -8 -42 -4 0 -6
-10 -5 -22 1 -13 3 -23 4 -23 1 0 4 -15 7 -33 2 -18 11 -46 19 -62 18 -35 19
-57 3 -63 -10 -4 -10 -8 1 -15 10 -7 11 -14 2 -31 -6 -11 -17 -20 -23 -18 -6
1 -13 -5 -15 -13 -4 -13 -3 -13 6 0 8 11 11 11 11 2 0 -7 -7 -15 -15 -18 -8
-4 -13 -9 -10 -13 2 -4 -12 -32 -32 -62 -19 -30 -40 -70 -45 -89 -6 -19 -19
-47 -30 -63 -11 -15 -18 -33 -15 -40 2 -6 11 2 19 18 9 17 28 40 42 52 25 22
26 22 36 3 13 -24 13 -50 0 -50 -5 0 -10 10 -10 22 0 27 -5 21 -14 -15 -5 -22
-4 -27 6 -22 7 4 2 -4 -12 -16 -17 -15 -19 -20 -7 -16 18 7 25 -17 7 -28 -5
-3 -10 -17 -10 -31 0 -22 3 -24 23 -18 12 3 29 12 37 20 18 15 55 12 54 -4 -3
-39 -5 -41 -21 -35 -14 5 -16 4 -7 -8 6 -8 9 -38 7 -66 -1 -29 0 -53 3 -53 18
0 74 31 74 42 1 7 9 3 20 -11 12 -13 26 -21 35 -17 9 3 15 0 15 -9 0 -8 5 -15
11 -15 5 0 7 -5 3 -11 -5 -8 -9 -8 -14 1 -8 14 -40 10 -43 -5 -1 -5 20 -13 46
-17 27 -4 51 -9 55 -12 3 -3 11 -1 18 5 14 11 34 4 34 -12 0 -5 -30 -9 -66 -9
-55 0 -71 -4 -95 -24 -28 -24 -28 -25 -6 -28 37 -5 25 -23 -19 -26 -29 -2 -52
3 -75 17 -37 23 -54 27 -44 11 9 -15 -13 -12 -41 6 -28 19 -38 15 -28 -10 3
-9 11 -13 18 -9 6 4 4 -1 -4 -11 -13 -17 -14 -17 -21 1 -7 17 -8 17 -9 -2 0
-17 -2 -18 -13 -5 -14 17 -53 27 -42 11 9 -15 -6 -13 -27 3 -10 7 -14 17 -10
21 4 5 2 5 -4 2 -7 -4 -23 2 -37 13 -40 32 -109 59 -163 65 -31 4 -55 13 -66
25 -15 19 -17 19 -21 3 -3 -10 -5 1 -6 23 0 23 8 61 18 85 11 24 29 91 41 149
22 111 44 185 66 229 8 14 14 44 14 66 0 22 5 58 10 80 5 22 12 78 15 125 4
47 10 103 15 125 4 22 20 96 33 165 14 69 34 146 44 173 17 47 58 100 82 108
6 2 13 12 15 21 4 28 14 32 40 14 33 -21 45 -20 39 4 -7 25 20 37 51 22 16 -7
29 -6 45 3 20 10 21 13 7 18 -9 4 -16 2 -16 -3 0 -6 -5 -10 -11 -10 -6 0 -8 8
-5 18 8 23 -49 49 -58 26 -3 -8 -11 -14 -18 -13 -10 0 -10 2 0 6 13 5 17 33 5
33 -17 0 -35 -19 -29 -29 4 -6 3 -11 -2 -11 -12 0 -22 37 -16 55 8 20 53 25
64 6 4 -9 11 -13 14 -10 7 7 -22 49 -35 49 -6 0 -7 -5 -3 -11 4 -7 1 -10 -7
-7 -23 9 -49 -11 -49 -37 0 -18 -6 -24 -25 -27 -34 -4 -27 -23 8 -22 18 1 27
-4 27 -15 0 -13 2 -13 9 -2 6 9 11 10 15 2 4 -6 5 -11 1 -11 -3 0 -1 -9 5 -21
11 -20 11 -20 -16 -3 -32 22 -61 27 -69 14 -3 -6 -1 -10 4 -10 20 0 11 -39
-11 -51 -21 -11 -22 -11 -9 4 8 10 9 17 3 17 -6 0 -14 -4 -17 -10 -12 -19 -26
-11 -15 9 11 22 4 50 -19 68 -11 8 -12 12 -3 13 6 0 12 5 12 11 0 5 -4 7 -10
4 -5 -3 -10 -1 -10 4 0 6 4 11 10 11 5 0 7 7 3 15 -3 9 3 22 13 31 18 14 17
14 -6 3 -14 -7 -27 -11 -28 -10 -2 2 -6 0 -9 -3 -4 -3 -1 -6 5 -6 7 0 12 -5
12 -11 0 -5 -4 -8 -8 -5 -5 3 -6 -9 -4 -26 3 -21 1 -29 -7 -24 -6 4 -11 13
-11 21 0 14 -21 25 -51 25 -15 0 -18 -5 -15 -26 5 -25 4 -25 -13 -10 -10 9
-25 16 -35 16 -22 0 -63 -27 -71 -48 -5 -14 -4 -14 12 0 35 29 48 31 23 2 -14
-16 -26 -31 -27 -33 -2 -2 -9 1 -16 7 -10 9 -27 1 -73 -33 -67 -51 -181 -108
-201 -101 -7 3 -12 0 -10 -6 1 -6 -4 -13 -11 -15 -9 -4 -13 1 -10 13 2 12 12
19 25 18 l22 0 -20 25 c-11 13 -30 32 -42 40 -21 15 -21 15 2 -17 12 -18 18
-32 12 -32 -5 0 -13 -9 -16 -20 -4 -11 -11 -17 -17 -14 -7 4 -7 9 0 13 19 12
-153 5 -182 -7 -16 -7 -31 -11 -33 -8 -4 4 48 38 77 50 8 3 -2 4 -23 0 -23 -3
-51 -17 -69 -35 -31 -29 -48 -36 -48 -20 0 10 63 62 98 80 13 7 22 15 19 17
-3 3 -37 -10 -76 -29 -39 -19 -71 -30 -71 -26 0 15 91 78 123 85 32 7 32 7 7
15 -14 4 -41 7 -59 8 -23 1 -32 4 -25 11 16 16 57 18 91 4 17 -8 58 -13 92
-11 57 2 60 3 54 25 -3 13 -1 22 6 22 23 0 10 30 -19 45 -17 9 -28 20 -25 25
3 6 1 18 -4 27 -6 11 -11 13 -11 5 0 -9 -5 -10 -17 -4 -20 12 -28 46 -8 38 28
-10 22 7 -15 41 -44 42 -99 63 -144 56 -42 -7 -111 -66 -103 -87 4 -9 2 -16
-2 -16 -5 0 -12 22 -16 50 -4 27 -10 52 -15 55 -20 12 -37 -137 -19 -161 6 -7
0 -16 -16 -24 -14 -7 -25 -17 -25 -22 0 -4 -13 -8 -28 -8 -34 0 -71 -33 -50
-46 8 -5 -4 -15 -37 -31 -44 -20 -47 -23 -20 -21 67 3 72 0 85 -47 7 -25 10
-48 6 -52 -3 -3 -6 2 -6 13 -1 18 -1 18 -11 1 -9 -15 -5 -26 15 -56 30 -43 32
-51 10 -51 -8 0 -12 -5 -9 -10 4 -6 10 -8 15 -5 16 10 18 -23 3 -45 -11 -16
-12 -25 -4 -33 6 -6 11 -20 11 -30 0 -16 -3 -17 -15 -7 -24 20 -17 -3 8 -27
13 -11 32 -38 42 -60 11 -21 24 -43 28 -50 21 -30 133 118 178 237 19 50 51
89 75 90 19 0 64 -25 64 -36 0 -6 -8 -22 -18 -35 -11 -13 -24 -39 -30 -56
l-11 -33 29 15 c32 16 86 20 94 6 3 -4 19 -11 37 -15 26 -5 29 -9 24 -28 -7
-22 -6 -22 7 -4 14 18 15 18 44 0 16 -10 43 -31 59 -46 32 -30 121 -68 159
-68 18 0 25 7 30 32 3 17 2 36 -4 42 -7 7 -10 3 -10 -13 0 -12 -4 -20 -9 -17
-5 4 -12 0 -14 -6 -4 -10 -8 -9 -17 2 -9 11 -13 12 -17 3 -7 -19 -23 -16 -23
4 0 13 -3 14 -12 5 -17 -17 -28 -15 -28 4 0 8 -4 13 -9 9 -5 -3 -15 10 -22 29
-7 19 -16 33 -20 31 -4 -3 -10 2 -13 11 -9 25 -7 27 10 13 15 -12 16 -11 9 11
-7 21 -6 23 7 12 13 -10 17 -8 26 15 16 43 23 95 12 88 -6 -3 -10 -14 -10 -24
0 -10 -3 -21 -7 -25 -5 -4 -8 -12 -8 -17 0 -16 -20 -15 -21 1 -2 31 -4 33 -18
14 -20 -27 -31 -10 -12 18 9 13 17 21 19 19 5 -9 90 42 124 75 20 20 47 43 60
51 13 8 23 20 23 27 0 6 -5 4 -10 -4 -6 -9 -10 -10 -10 -3 0 7 10 17 21 24 17
9 20 8 14 -2 -6 -9 -3 -10 11 -5 10 5 27 11 37 13 9 3 17 9 17 14 0 12 -7 11
-33 -2 -21 -11 -21 -10 2 11 20 20 26 21 35 9 11 -14 68 -21 60 -7 -6 9 57 11
80 2 18 -7 22 -39 6 -49 -17 -11 -11 -24 10 -20 13 2 20 -2 20 -11 0 -8 -4
-14 -10 -14 -5 0 -10 4 -10 9 0 5 -8 8 -17 7 -12 -2 -24 -21 -35 -56 -10 -30
-16 -56 -13 -58 5 -6 24 41 29 71 1 11 10 21 19 23 12 2 14 -2 7 -14 -24 -43
-43 -104 -56 -182 -22 -136 -33 -193 -43 -225 -10 -28 -10 -28 -7 10 2 22 13
93 25 159 12 65 20 120 18 122 -4 4 -61 -260 -71 -326 -3 -19 -8 -71 -10 -115
l-5 -80 12 87 c7 47 15 90 20 94 10 10 9 -94 -2 -136 -5 -19 -12 -63 -15 -97
-3 -34 -13 -77 -23 -94 -10 -17 -26 -46 -35 -63 l-17 -31 -1 33 c0 17 3 32 8
32 4 0 8 12 8 28 l1 27 -13 -30 c-7 -16 -13 -37 -14 -45 0 -8 -8 -37 -19 -65
-10 -27 -22 -68 -25 -90 -10 -58 -20 -72 -40 -56 -9 8 -16 19 -16 27 0 26
-107 118 -176 151 -33 16 -34 18 -28 62 6 49 -14 122 -34 129 -7 2 -12 -1 -12
-7 0 -6 4 -11 9 -11 8 0 8 -22 0 -40 -1 -3 -2 -18 -3 -35 -1 -24 -5 -30 -22
-29 -12 0 -27 -9 -34 -20 -12 -19 -12 -20 4 -7 9 8 20 11 24 7 4 -4 -2 -14
-12 -22 -15 -11 -20 -25 -19 -59 1 -25 -3 -45 -8 -45 -5 0 -9 8 -9 17 0 13 -3
14 -12 5 -8 -8 -8 -15 2 -27 7 -8 10 -19 6 -23 -4 -4 -12 1 -17 11 -11 19 -29
23 -29 6 0 -5 5 -7 11 -3 9 5 10 -1 5 -22 -4 -16 -8 -36 -9 -45 -1 -8 -9 -16
-19 -16 -11 -1 -17 4 -16 12 6 29 -18 18 -34 -15 l-18 -35 -1 55 c-2 83 0 111
12 155 6 23 9 59 7 80 l-3 40 -22 -40 c-20 -36 -74 -108 -58 -77 4 7 -1 12
-14 12 -10 0 -22 6 -24 13 -3 6 -6 -1 -6 -17 -1 -20 -5 -27 -16 -22 -8 3 -20
-3 -27 -13 -7 -10 -24 -22 -38 -26 -14 -4 -43 -19 -65 -33 -22 -15 -50 -25
-62 -23 -13 1 -23 -3 -23 -9 0 -6 5 -8 10 -5 6 3 10 2 10 -3 0 -9 -23 -22 -40
-22 -4 0 -10 9 -13 19 -3 13 1 21 14 24 18 5 37 52 25 64 -3 4 -13 -2 -21 -13
-13 -17 -14 -17 -15 -1 0 19 -20 24 -20 5 0 -9 -4 -8 -10 2 -8 12 -10 10 -11
-10 l-1 -25 -7 25 c-7 25 -7 25 -13 3 -7 -28 -53 -41 -82 -23 -14 9 -21 10
-24 1 -2 -6 -10 -11 -18 -11 -9 0 -14 11 -14 35 0 24 -5 35 -15 35 -8 0 -15 6
-15 14 0 8 -11 23 -25 34 -14 11 -25 25 -25 30 0 6 -4 14 -10 17 -6 4 -7 -1
-4 -12 5 -15 4 -16 -5 -3 -6 8 -11 28 -11 43 0 24 3 27 22 22 17 -6 20 -4 15
10 -4 9 -7 19 -7 21 0 3 -4 2 -10 -1 -6 -4 -10 7 -10 25 0 25 3 31 16 26 10
-4 14 -2 11 6 -2 7 -9 12 -14 11 -6 -1 -9 18 -8 43 1 30 -3 44 -12 44 -7 0
-13 -8 -13 -17 0 -15 -2 -16 -10 -3 -15 23 -12 50 6 50 12 0 14 7 9 33 -4 17
-11 34 -16 35 -5 2 -9 10 -9 18 0 9 5 12 10 9 6 -3 10 1 10 9 0 9 -4 16 -9 16
-5 0 -7 8 -5 18 2 9 5 35 7 57 3 22 7 48 11 57 4 9 8 38 9 65 1 26 6 53 10 60
4 6 3 14 -3 18 -10 6 -11 4 -35 -125 -31 -170 -35 -295 -12 -397 9 -37 20 -93
26 -124 5 -30 30 -99 55 -152 51 -107 52 -110 37 -115 -6 -2 -15 8 -21 22 -9
24 -56 54 -109 71 -13 4 -43 20 -67 35 -24 15 -65 33 -91 40 -27 7 -67 19 -91
26 -25 8 -85 14 -143 14 -94 0 -101 1 -106 21 -4 14 -8 17 -13 9 -4 -7 -24
-14 -45 -17 -25 -3 -35 -1 -31 6 4 5 14 7 23 4 12 -5 15 -2 10 10 -3 9 -2 17
4 17 6 0 7 5 4 10 -3 5 -1 10 5 10 6 0 8 5 5 10 -4 6 -11 8 -16 5 -5 -4 -9 -1
-9 4 0 6 5 11 10 11 6 0 10 8 10 19 0 10 7 24 15 31 13 10 19 10 33 -2 9 -9
30 -18 45 -22 28 -7 28 -6 12 18 -9 13 -23 27 -31 30 -23 9 -17 28 7 21 16 -5
19 -4 14 5 -5 9 -1 10 16 5 20 -6 22 -5 12 6 -17 17 -17 39 0 39 6 0 25 -7 41
-15 35 -18 36 -18 36 0 0 9 -6 12 -15 9 -9 -4 -15 0 -15 9 0 9 -3 22 -6 30 -8
22 25 15 43 -9 15 -19 15 -19 10 1 -4 11 -9 32 -12 47 -5 19 -11 25 -23 21
-10 -4 -13 -2 -8 5 19 31 46 5 46 -43 0 -13 10 -29 25 -39 38 -25 55 -21 55
14 0 22 4 28 15 24 17 -7 21 11 5 21 -8 5 -7 11 1 21 9 11 7 14 -10 14 -12 0
-19 -4 -16 -10 3 -5 1 -10 -5 -10 -6 0 -10 8 -8 18 3 13 14 17 51 17 49 0 54
4 37 36 -12 21 -50 26 -50 6 0 -13 -12 -17 -65 -20 -16 -1 -33 -6 -37 -12 -4
-6 -8 -2 -8 8 0 14 5 17 19 12 11 -3 22 -1 26 5 3 5 17 10 31 10 24 0 25 2 23
53 -2 28 0 50 5 47 9 -6 51 80 47 98 -1 8 6 20 16 27 14 11 15 16 6 26 -10 10
-9 15 5 26 9 7 13 13 7 12 -22 -4 -50 17 -51 39 0 12 3 22 6 22 4 0 5 20 3 44
-7 56 5 126 17 106 5 -8 12 -12 15 -8 4 3 -1 18 -10 32 -12 18 -15 35 -10 58
11 48 14 50 39 23 26 -28 36 -31 36 -11 0 8 8 17 18 19 16 4 16 5 0 6 -10 0
-18 7 -18 14 0 8 -9 22 -19 31 -14 13 -20 33 -22 70 -4 117 -2 129 23 148 18
14 19 18 6 18 -9 0 -18 -6 -21 -12 -3 -7 -10 0 -16 16 -7 16 -9 37 -5 45 4 11
8 12 11 4 9 -24 24 -13 22 15 -2 16 4 41 14 55 9 14 17 37 17 51 0 13 5 26 11
28 9 3 9 10 0 26 -7 12 -8 22 -4 21 21 -4 33 2 33 16 0 8 5 15 11 15 6 0 9 -6
7 -12 -8 -22 19 -40 40 -29 28 15 32 5 32 -66 0 -35 4 -63 10 -63 6 0 10 8 10
19 0 24 22 42 39 32 17 -11 7 -94 -26 -219 -13 -52 -23 -96 -20 -98 2 -3 17
30 32 73 15 43 34 85 42 94 11 13 11 18 1 21 -8 3 -1 18 23 46 19 22 41 54 48
69 7 15 17 35 22 43 4 8 20 39 36 69 15 29 37 60 49 67 14 10 20 23 18 39 -2
25 9 34 21 16 3 -6 14 -9 24 -8 13 1 17 7 13 20 -3 10 1 23 8 27 13 8 22 64
21 130 0 28 2 32 10 18 6 -10 14 -18 19 -18 13 0 0 38 -24 63 -19 21 -22 32
-17 62 1 6 5 4 10 -4 6 -10 11 -2 16 27 7 41 32 63 46 41 6 -11 20 34 20 66 0
18 41 54 55 48 8 -3 21 -18 29 -34 10 -18 24 -29 42 -31 20 -2 35 -15 53 -42
l25 -39 3 33 c4 38 -24 70 -63 70 -14 0 -25 5 -25 10 0 6 5 10 10 10 6 0 10 5
10 10 0 6 -5 9 -12 8 -7 -2 -15 16 -20 41 -4 25 -12 49 -18 55 -15 15 -12 26
6 26 10 0 14 6 11 14 -4 11 3 13 36 10 54 -5 77 3 77 27 0 19 -17 19 -870 19
l-870 0 0 -2000z m1580 1960 c0 -5 -4 -10 -9 -10 -6 0 -13 5 -16 10 -3 6 1 10
9 10 9 0 16 -4 16 -10z m2380 -40 c-8 -5 -22 -9 -30 -9 -10 0 -8 3 5 9 27 12
43 12 25 0z m-641 -44 c-1 -20 -2 -20 -6 -1 -3 11 -10 27 -17 35 -10 13 -9 13
7 1 9 -7 16 -23 16 -35z m201 40 c0 -3 -4 -8 -10 -11 -5 -3 -10 -1 -10 4 0 6
5 11 10 11 6 0 10 -2 10 -4z m447 -38 c11 -19 12 -37 3 -43 -4 -3 -6 -14 -3
-25 3 -11 0 -20 -6 -20 -6 0 -11 9 -11 21 0 14 -5 19 -14 16 -20 -8 -27 30 -9
48 18 18 29 19 40 3z m-420 -40 c-3 -7 -5 -2 -5 12 0 14 2 19 5 13 2 -7 2 -19
0 -25z m-357 -31 c0 29 26 -1 36 -42 8 -36 8 -45 -3 -45 -8 0 -13 13 -14 33 0
27 -2 29 -9 12 -5 -11 -9 -14 -9 -7 -2 24 -21 11 -21 -15 0 -14 -3 -24 -6 -21
-3 4 -2 27 2 53 4 32 9 43 15 34 6 -10 9 -10 9 -2z m-40 -34 c0 -20 -16 -8
-23 17 -4 17 -3 19 9 9 8 -6 14 -18 14 -26z m150 -4 c0 -6 -4 -7 -10 -4 -5 3
-10 11 -10 16 0 6 5 7 10 4 6 -3 10 -11 10 -16z m-675 -9 c3 -5 -1 -10 -10
-10 -9 0 -13 5 -10 10 3 6 8 10 10 10 2 0 7 -4 10 -10z m1302 -32 c-3 -8 -6
-5 -6 6 -1 11 2 17 5 13 3 -3 4 -12 1 -19z m-2527 2 c0 -5 -4 -10 -10 -10 -5
0 -10 5 -10 10 0 6 5 10 10 10 6 0 10 -4 10 -10z m1930 -22 c0 -18 -2 -20 -9
-8 -6 8 -7 18 -5 22 9 14 14 9 14 -14z m-695 -8 c3 -6 -1 -13 -10 -16 -19 -8
-30 0 -20 15 8 14 22 14 30 1z m21 -90 c3 -8 5 -17 4 -19 -1 -2 4 -7 12 -12
10 -6 10 -11 1 -20 -7 -7 -8 -21 -3 -40 7 -23 5 -29 -6 -29 -18 0 -23 13 -28
75 -2 28 -7 58 -11 69 -5 12 -3 21 6 27 10 6 15 2 17 -14 2 -12 5 -29 8 -37z
m-2031 -19 c3 -5 1 -12 -5 -16 -5 -3 -10 1 -10 9 0 18 6 21 15 7z m747 -28
c-6 -65 -10 -70 -11 -15 0 28 3 52 7 52 4 0 6 -17 4 -37z m-92 -54 c0 -10 -4
-19 -10 -19 -5 0 -10 12 -10 26 0 14 4 23 10 19 6 -3 10 -15 10 -26z m150 21
c0 -5 -2 -10 -4 -10 -3 0 -8 5 -11 10 -3 6 -1 10 4 10 6 0 11 -4 11 -10z
m-109 -57 c-9 -16 -10 -15 -11 8 0 14 3 29 8 33 12 12 14 -22 3 -41z m-241
-48 c0 -8 -4 -15 -10 -15 -5 0 -10 7 -10 15 0 8 5 15 10 15 6 0 10 -7 10 -15z
m281 -52 c-9 -16 -10 -14 -11 12 0 21 3 26 11 18 8 -8 8 -16 0 -30z m-41 9 c0
-4 -11 -12 -25 -19 -14 -6 -23 -7 -19 -2 3 5 -1 9 -8 9 -7 0 -2 6 12 14 24 12
40 12 40 -2z m-72 -52 c-14 -22 -24 -19 -15 5 4 8 11 15 17 15 6 0 6 -7 -2
-20z m1527 10 c4 -6 -7 -10 -25 -10 -18 0 -29 4 -25 10 3 6 15 10 25 10 10 0
22 -4 25 -10z m-1815 -42 c0 -13 -7 -32 -15 -42 -14 -19 -15 -19 -15 6 0 33 9
58 21 58 5 0 9 -10 9 -22z m247 -30 c-3 -7 -5 -2 -5 12 0 14 2 19 5 13 2 -7 2
-19 0 -25z m-107 -50 c0 -18 -2 -20 -9 -8 -6 8 -7 18 -5 22 9 14 14 9 14 -14z
m63 -18 c-8 -29 -21 -25 -15 5 2 14 8 23 12 20 5 -3 6 -14 3 -25z m1573 5 c18
-15 18 -15 -5 -13 -14 2 -26 9 -29 16 -5 17 10 15 34 -3z m-2101 -5 c3 -5 1
-10 -4 -10 -6 0 -11 5 -11 10 0 6 2 10 4 10 3 0 8 -4 11 -10z m2158 -29 c-5
-21 -56 -47 -72 -36 -6 3 -11 16 -11 28 1 21 1 21 15 4 13 -18 14 -18 34 2 26
26 41 27 34 2z m-1620 -31 c-3 -11 -9 -20 -14 -20 -11 0 -11 3 -3 24 9 23 23
20 17 -4z m1697 -10 c0 -5 -4 -10 -10 -10 -5 0 -10 5 -10 10 0 6 5 10 10 10 6
0 10 -4 10 -10z m-2430 -10 c0 -5 -2 -10 -4 -10 -3 0 -8 5 -11 10 -3 6 -1 10
4 10 6 0 11 -4 11 -10z m2275 1 c3 -6 -3 -9 -14 -8 -11 0 -17 5 -15 9 7 11 22
10 29 -1z m385 -13 c0 -6 -6 -5 -15 2 -8 7 -15 14 -15 16 0 2 7 1 15 -2 8 -4
15 -11 15 -16z m-320 -3 c-7 -8 -19 -15 -26 -15 -8 0 -14 -9 -14 -20 0 -25 30
-27 30 -2 1 14 4 13 21 -7 11 -14 17 -31 14 -42 -4 -11 -2 -19 4 -19 6 0 8 -7
5 -15 -4 -9 0 -15 10 -15 14 0 14 -2 -1 -18 -17 -16 -19 -16 -30 6 -7 12 -9
30 -6 40 5 13 3 14 -7 5 -13 -12 -40 -7 -40 8 0 5 8 9 18 10 13 0 14 2 2 6
-20 7 -50 39 -50 53 0 5 7 10 15 10 9 0 18 7 21 15 4 8 15 15 26 15 17 0 18
-3 8 -15z m-83 -37 c-3 -8 -6 -5 -6 6 -1 11 2 17 5 13 3 -3 4 -12 1 -19z m148
12 c8 -13 -15 -13 -35 0 -12 8 -11 10 7 10 12 0 25 -4 28 -10z m-25 -184 c0
-3 -4 -8 -10 -11 -5 -3 -10 -1 -10 4 0 6 5 11 10 11 6 0 10 -2 10 -4z m-40
-21 c0 -12 -19 -12 -23 0 -4 9 -1 12 9 8 7 -3 14 -7 14 -8z m73 -12 c-7 -2
-19 -2 -25 0 -7 3 -2 5 12 5 14 0 19 -2 13 -5z m-83 -23 c0 -5 -2 -10 -4 -10
-3 0 -8 5 -11 10 -3 6 -1 10 4 10 6 0 11 -4 11 -10z m27 -15 c-4 -8 -2 -17 4
-20 5 -4 6 -11 3 -17 -5 -7 -11 -3 -16 11 -4 13 -6 27 -2 32 9 15 17 10 11 -6z
m73 11 c0 -3 -4 -8 -10 -11 -5 -3 -10 -1 -10 4 0 6 5 11 10 11 6 0 10 -2 10
-4z m-1170 -21 c0 -17 17 -20 22 -4 3 8 15 9 38 4 35 -8 35 -8 10 -17 -15 -6
-20 -12 -12 -15 6 -3 12 -11 12 -19 0 -10 -13 -14 -49 -14 -41 0 -50 3 -54 21
-6 24 -34 21 -29 -3 1 -9 -6 -18 -17 -21 -14 -3 -18 1 -18 18 0 17 10 28 41
43 52 25 56 25 56 7z m1465 -5 c3 -5 1 -10 -4 -10 -6 0 -11 5 -11 10 0 6 2 10
4 10 3 0 8 -4 11 -10z m-270 -28 c11 -6 15 -12 10 -12 -6 0 -17 6 -24 13 -11
10 -12 8 -7 -10 4 -12 2 -24 -3 -28 -6 -3 -8 0 -5 8 3 8 1 18 -5 22 -15 9 -14
24 2 21 6 -1 21 -7 32 -14z m-2015 -34 c0 -5 -4 -8 -10 -8 -5 0 -10 10 -10 23
0 18 2 19 10 7 5 -8 10 -18 10 -22z m1965 -14 c0 -13 -4 -22 -10 -20 -5 2 -9
9 -7 15 1 7 -3 21 -8 32 -10 18 -9 19 7 9 10 -7 18 -23 18 -36z m300 36 c3 -5
1 -10 -4 -10 -6 0 -11 5 -11 10 0 6 2 10 4 10 3 0 8 -4 11 -10z m-2319 -60 c3
-26 0 -39 -6 -35 -5 3 -10 15 -10 25 0 13 -5 17 -14 14 -11 -4 -13 0 -9 16 4
16 8 18 14 8 7 -10 9 -8 9 6 0 34 13 8 16 -34z m2424 -14 c0 -6 -10 -18 -22
-26 -40 -25 -72 -22 -61 6 5 13 8 13 23 -1 17 -16 19 -15 30 4 6 12 8 26 5 31
-3 6 1 7 9 4 9 -3 16 -11 16 -18z m-370 -27 c0 -6 -4 -7 -10 -4 -5 3 -10 11
-10 16 0 6 5 7 10 4 6 -3 10 -11 10 -16z m240 -5 c0 -8 -4 -12 -10 -9 -5 3
-10 10 -10 16 0 5 5 9 10 9 6 0 10 -7 10 -16z m-2320 -10 c0 -8 -4 -12 -10 -9
-5 3 -10 10 -10 16 0 5 5 9 10 9 6 0 10 -7 10 -16z m2121 2 c-14 -16 0 -29 34
-33 11 -1 14 1 8 3 -7 3 -13 10 -13 16 0 6 24 8 59 6 57 -3 60 -5 96 -52 24
-32 34 -53 29 -64 -11 -26 -5 -44 24 -69 14 -12 23 -25 19 -29 -4 -4 -17 3
-28 15 -16 17 -24 20 -29 11 -6 -9 -13 -7 -29 9 -11 11 -21 17 -21 11 0 -5 -4
-10 -10 -10 -5 0 -10 7 -10 15 0 8 -4 15 -10 15 -5 0 -10 7 -10 15 0 8 -5 15
-10 15 -6 0 -36 25 -66 55 -47 46 -54 58 -44 70 7 8 15 15 17 15 3 0 0 -6 -6
-14z m-451 0 c0 -15 -14 -35 -21 -30 -15 9 -10 34 6 34 8 0 15 -2 15 -4z m777
-12 c-3 -3 -12 -4 -19 -1 -8 3 -5 6 6 6 11 1 17 -2 13 -5z m-847 -24 c0 -13
-5 -18 -15 -14 -8 4 -15 12 -15 20 0 8 7 14 15 14 8 0 15 -9 15 -20z m940 10
c0 -19 2 -25 22 -52 13 -19 15 -28 7 -28 -10 0 -10 -3 -1 -12 17 -17 15 -29
-4 -26 -10 2 -19 -3 -21 -9 -3 -7 0 -13 6 -13 6 0 11 -5 11 -12 0 -7 -7 -5
-17 5 -10 8 -30 19 -45 22 -23 6 -27 11 -22 30 5 22 -11 43 -24 30 -3 -3 0
-10 8 -15 8 -5 11 -12 8 -15 -10 -10 -28 4 -28 22 0 11 -6 14 -25 9 -50 -13
-18 33 40 56 46 19 85 22 85 8z m-1676 -66 c14 -5 14 -8 0 -21 -8 -9 -18 -12
-22 -8 -4 4 -1 10 7 13 11 4 11 6 0 13 -16 10 -8 12 15 3z m1504 -55 c7 -12
11 -24 8 -27 -6 -6 -35 27 -36 41 0 14 15 7 28 -14z m-928 1 c0 -5 -5 -10 -11
-10 -5 0 -7 5 -4 10 3 6 8 10 11 10 2 0 4 -4 4 -10z m1170 -20 c0 -5 -2 -10
-4 -10 -3 0 -8 5 -11 10 -3 6 -1 10 4 10 6 0 11 -4 11 -10z m-191 -64 c-14
-15 -12 -21 18 -56 l26 -32 -29 4 c-22 2 -29 8 -27 23 1 11 -5 23 -12 28 -8 4
-12 14 -9 22 4 8 10 12 15 9 12 -7 11 13 -2 39 -9 19 -7 18 10 -3 12 -16 16
-29 10 -34z m-1049 34 c0 -5 -4 -10 -10 -10 -5 0 -10 5 -10 10 0 6 5 10 10 10
6 0 10 -4 10 -10z m912 -17 c20 -18 24 -33 8 -33 -5 0 -10 7 -10 15 0 8 -7 15
-15 15 -8 0 -15 5 -15 10 0 15 11 12 32 -7z m-982 -27 c0 -8 -4 -17 -8 -20 -4
-2 -8 4 -8 15 0 10 4 19 8 19 4 0 8 -6 8 -14z m1060 -56 c6 0 10 -4 10 -10 0
-19 -19 -10 -40 20 -12 17 -18 35 -14 42 5 8 12 1 21 -20 7 -18 18 -32 23 -32z
m-393 44 c-3 -3 -12 -4 -19 -1 -8 3 -5 6 6 6 11 1 17 -2 13 -5z m483 -4 c0 -5
-2 -10 -4 -10 -3 0 -8 5 -11 10 -3 6 -1 10 4 10 6 0 11 -4 11 -10z m-1753 -42
c-3 -8 -6 -5 -6 6 -1 11 2 17 5 13 3 -3 4 -12 1 -19z m1632 -22 c8 -9 8 -16 2
-20 -6 -4 -15 3 -21 14 -12 23 2 27 19 6z m151 -10 c0 -2 -7 -7 -16 -10 -8 -3
-12 -2 -9 4 6 10 25 14 25 6z m43 -62 c17 -34 16 -34 -2 -24 -11 5 -31 10 -46
10 -15 0 -24 4 -20 10 3 6 15 10 26 10 10 0 19 5 19 10 0 6 -4 10 -10 10 -5 0
-10 4 -10 10 0 20 27 -2 43 -36z m27 26 c6 -11 9 -20 7 -20 -2 0 -12 9 -22 20
-10 11 -13 20 -7 20 6 0 16 -9 22 -20z m20 -80 c0 -5 -2 -10 -4 -10 -3 0 -8 5
-11 10 -3 6 -1 10 4 10 6 0 11 -4 11 -10z m-541 -75 c28 -52 31 -66 25 -110
-11 -82 -36 -112 -49 -57 -3 16 -1 41 5 57 14 37 3 138 -15 132 -8 -4 -10 3
-7 19 5 30 3 32 41 -41z m-2175 39 c3 -8 2 -12 -4 -9 -6 3 -10 10 -10 16 0 14
7 11 14 -7z m16 -55 c0 -5 -4 -9 -10 -9 -5 0 -10 7 -10 16 0 8 5 12 10 9 6 -3
10 -10 10 -16z m7 -101 c-3 -8 -6 -5 -6 6 -1 11 2 17 5 13 3 -3 4 -12 1 -19z
m9 -61 c4 -4 -2 -7 -14 -7 -12 0 -22 4 -22 9 0 10 26 9 36 -2z m-41 -36 c3 -5
1 -12 -5 -16 -5 -3 -10 1 -10 9 0 18 6 21 15 7z m-145 -61 c0 -5 8 -10 18 -10
12 -1 9 -5 -10 -16 -16 -8 -28 -21 -28 -29 0 -7 -4 -16 -8 -19 -5 -3 -9 8 -9
24 0 18 6 30 13 30 8 0 11 6 8 15 -4 8 -1 15 5 15 6 0 11 -4 11 -10z m-44
-107 c-7 -7 -26 7 -26 19 0 6 6 6 15 -2 9 -7 13 -15 11 -17z m-195 -16 c-10
-9 -11 -8 -5 6 3 10 9 15 12 12 3 -3 0 -11 -7 -18z m-30 -50 c-10 -9 -11 -8
-5 6 3 10 9 15 12 12 3 -3 0 -11 -7 -18z m369 -123 c0 -8 -4 -12 -10 -9 -5 3
-10 10 -10 16 0 5 5 9 10 9 6 0 10 -7 10 -16z m1040 9 c0 -5 -5 -15 -10 -23
-8 -12 -10 -11 -10 8 0 12 5 22 10 22 6 0 10 -3 10 -7z m-1290 -13 c0 -5 -7
-10 -16 -10 -8 0 -12 5 -9 10 3 6 10 10 16 10 5 0 9 -4 9 -10z m272 -41 c2 -7
45 -13 113 -15 312 -10 356 -18 277 -51 -41 -17 -53 -35 -32 -48 6 -3 10 1 10
11 0 13 6 15 31 10 17 -3 52 -6 76 -6 36 0 46 -4 50 -20 4 -14 14 -20 33 -20
15 0 49 -7 76 -15 27 -8 96 -22 154 -30 58 -9 109 -20 115 -26 5 -5 18 -9 30
-10 20 0 20 0 0 -8 -11 -5 -57 -14 -103 -21 -73 -11 -84 -16 -97 -39 -8 -14
-14 -21 -15 -14 0 8 -12 10 -35 6 -23 -4 -35 -2 -35 6 0 7 6 11 13 10 25 -3
37 1 37 15 0 8 6 16 13 19 6 2 9 7 5 11 -3 4 -17 0 -31 -8 -14 -10 -32 -14
-42 -9 -14 5 -17 3 -12 -10 3 -9 3 -17 -1 -17 -13 0 -62 25 -62 31 0 3 -26 7
-57 7 -32 1 -82 5 -111 8 -40 5 -63 2 -93 -11 -21 -10 -39 -22 -39 -27 0 -4
-4 -8 -10 -8 -5 0 -7 7 -4 15 4 8 1 15 -5 15 -6 0 -11 6 -11 14 0 23 -19 29
-36 12 -10 -10 -13 -24 -9 -37 5 -15 4 -19 -4 -15 -6 4 -11 16 -11 28 0 14 -5
18 -16 14 -10 -4 -13 -2 -8 6 5 8 2 9 -9 5 -10 -3 -17 -2 -17 3 0 5 8 10 17
12 11 2 0 9 -25 17 -37 13 -45 13 -52 1 -12 -19 -22 -8 -14 14 3 9 16 16 28
17 21 0 21 0 -1 11 -13 6 -23 15 -23 20 0 5 -19 17 -42 28 -33 14 -70 19 -157
19 -62 1 -116 3 -120 5 -3 2 -27 1 -53 -3 -26 -4 -45 -4 -42 1 3 4 16 8 29 8
13 0 26 4 29 9 8 12 134 42 194 46 27 1 58 7 68 13 24 14 31 15 36 1z m1488
-46 c0 -14 10 -16 34 -7 9 3 12 12 9 22 -3 9 4 4 17 -11 13 -17 19 -32 14 -35
-6 -4 -18 -31 -27 -61 -13 -40 -14 -57 -6 -67 8 -10 8 -15 -2 -19 -8 -3 -15
-21 -16 -40 -2 -19 -14 -58 -28 -87 -14 -28 -25 -58 -25 -65 0 -7 -5 -13 -11
-13 -6 0 -9 7 -5 15 8 23 -5 18 -44 -16 -22 -20 -31 -32 -22 -36 6 -2 12 -12
12 -21 0 -10 -3 -13 -8 -7 -12 17 -42 17 -42 0 0 -8 4 -15 9 -15 19 0 -10 -58
-32 -65 l-22 -7 23 -6 24 -7 -27 -29 c-15 -16 -28 -34 -29 -40 -3 -18 -40 -76
-48 -76 -4 0 -8 -7 -8 -15 0 -9 -6 -12 -15 -9 -18 7 -21 -22 -2 -29 9 -4 8 -8
-3 -16 -8 -6 -15 -18 -15 -28 0 -26 -48 -153 -58 -153 -4 0 -6 -4 -3 -9 3 -4
-4 -17 -17 -27 -17 -15 -19 -15 -8 -2 8 11 10 28 6 48 -4 19 -2 36 6 46 7 9
25 41 40 72 24 51 25 59 12 79 -16 24 -14 73 2 85 5 4 18 8 28 8 10 0 24 6 30
13 30 31 82 188 96 289 7 48 21 92 40 128 22 40 31 68 31 104 0 32 6 56 17 68
18 20 4 25 -16 6 -7 -8 -6 2 5 27 23 57 44 70 66 42 10 -12 18 -28 18 -34z
m26 20 c-6 -6 -36 9 -36 18 0 5 9 4 20 -3 10 -7 18 -14 16 -15z m-1910 -31
c-4 -3 -14 2 -24 12 -16 18 -16 18 6 6 13 -6 21 -14 18 -18z m847 3 c-7 -21
-12 -19 -10 4 0 11 5 18 9 15 4 -3 5 -11 1 -19z m292 15 c3 -5 1 -10 -4 -10
-6 0 -11 5 -11 10 0 6 2 10 4 10 3 0 8 -4 11 -10z m1845 -112 c0 -5 -10 0 -22
12 -12 11 -28 20 -35 20 -8 0 -11 4 -8 10 6 10 65 -27 65 -42z m-2572 2 c7
-11 11 -20 9 -20 -2 0 -14 9 -27 20 -15 13 -18 20 -9 20 8 0 20 -9 27 -20z
m12 -40 c0 -5 -4 -10 -10 -10 -5 0 -10 -4 -10 -10 0 -5 7 -7 15 -4 8 4 15 1
15 -6 0 -6 -8 -10 -17 -8 -21 4 -27 48 -7 48 8 0 14 -4 14 -10z m61 -58 c-13
-28 0 -46 30 -38 9 2 23 0 30 -5 12 -8 12 -11 -1 -18 -12 -9 -12 -11 3 -17 9
-3 17 -13 17 -21 0 -10 -6 -13 -17 -9 -10 4 -14 4 -10 0 7 -7 -21 -33 -35 -34
-5 0 -8 14 -8 30 0 17 -5 30 -11 30 -5 0 -8 4 -5 9 3 5 -4 11 -16 15 -18 4
-20 8 -10 18 6 6 12 20 12 30 0 10 5 18 11 18 5 0 7 5 4 10 -4 6 -11 8 -16 5
-13 -9 -11 4 4 19 19 21 32 -10 18 -42z m1016 26 c-3 -8 -6 -5 -6 6 -1 11 2
17 5 13 3 -3 4 -12 1 -19z m1120 -20 c-3 -7 -5 -2 -5 12 0 14 2 19 5 13 2 -7
2 -19 0 -25z m-2737 -56 c0 -6 -6 -12 -12 -15 -9 -3 -6 -10 8 -20 11 -9 29
-34 39 -56 18 -41 29 -49 40 -31 7 12 65 -42 65 -61 0 -10 3 -10 12 -1 10 10
5 19 -20 42 -18 16 -32 34 -32 39 0 6 -7 11 -15 11 -8 0 -15 5 -15 10 0 13 4
13 45 -4 19 -8 35 -20 35 -27 0 -7 3 -10 6 -6 9 9 74 -43 74 -59 0 -13 -17
-18 -52 -15 -9 1 -19 -3 -23 -9 -11 -17 -23 -11 -37 17 -8 16 -25 30 -43 35
-19 6 -42 26 -65 57 -23 34 -44 52 -65 57 l-30 7 30 6 c21 4 26 9 17 15 -10 6
-10 11 -1 22 8 10 8 14 1 14 -6 0 -9 7 -6 15 5 12 10 10 25 -9 10 -13 19 -29
19 -34z m517 26 c-3 -8 -6 -5 -6 6 -1 11 2 17 5 13 3 -3 4 -12 1 -19z m-30
-19 c-4 -17 -3 -19 6 -10 17 17 30 13 24 -9 -3 -11 -1 -20 4 -20 5 0 9 -5 9
-11 0 -6 -9 -8 -20 -4 -13 4 -20 2 -20 -7 0 -10 -3 -9 -10 2 -6 10 -10 11 -10
3 0 -19 -30 -15 -37 5 -4 9 -11 20 -17 24 -8 5 -7 8 1 8 6 0 15 -4 18 -10 10
-16 28 -11 21 6 -7 17 9 44 26 44 6 0 8 -10 5 -21z m63 11 c0 -5 -4 -10 -10
-10 -5 0 -10 5 -10 10 0 6 5 10 10 10 6 0 10 -4 10 -10z m530 -9 c0 -6 -4 -13
-10 -16 -5 -3 -10 1 -10 9 0 9 5 16 10 16 6 0 10 -4 10 -9z m1840 -1 c0 -12
-8 -12 -35 0 -18 8 -17 9 8 9 15 1 27 -3 27 -9z m-2645 -10 c3 -5 1 -10 -4
-10 -6 0 -11 5 -11 10 0 6 2 10 4 10 3 0 8 -4 11 -10z m3255 -10 c11 -7 4 -10
-25 -10 -31 0 -37 -3 -25 -11 12 -9 12 -10 -3 -5 -10 3 -25 6 -33 6 -9 0 -12
5 -8 11 4 8 -1 9 -16 4 -14 -4 -20 -3 -16 3 8 13 106 14 126 2z m128 -1 c-10
-5 -18 -18 -18 -27 -1 -16 -2 -16 -14 1 -7 9 -19 17 -27 18 -19 1 30 17 56 18
18 0 19 0 3 -10z m-2697 -15 c10 -13 10 -17 -2 -25 -10 -8 -7 -8 11 -3 14 4
28 11 31 16 4 7 9 7 13 0 3 -5 -1 -12 -9 -16 -8 -3 -15 -18 -15 -33 l0 -27
-16 22 c-9 13 -30 24 -55 28 -21 4 -39 11 -39 16 0 5 6 8 13 6 6 -2 13 1 14 6
1 9 23 26 34 26 4 0 12 -7 20 -16z m-905 -25 c3 -6 -5 -3 -20 6 -14 10 -26 19
-26 22 0 7 39 -17 46 -28z m2922 8 c5 -24 -15 -21 -21 4 -3 13 -1 19 6 16 7
-2 13 -11 15 -20z m-2228 1 c0 -7 -9 -26 -20 -43 -22 -34 -26 -75 -8 -93 9 -9
9 -12 -2 -12 -11 -1 -9 -5 5 -17 19 -15 19 -15 -7 -9 -37 8 -58 -26 -32 -52
17 -16 17 -16 12 5 -3 13 -2 25 2 28 17 10 40 -8 49 -39 4 -17 14 -30 21 -28
6 1 18 -3 26 -9 23 -19 16 2 -7 22 -16 14 -20 25 -14 46 5 21 8 24 16 12 7
-11 9 -9 9 9 0 15 -6 22 -19 22 -14 0 -18 5 -14 20 3 11 0 20 -6 20 -6 0 -11
-5 -11 -11 0 -8 -5 -8 -15 1 -24 20 -18 30 19 30 19 0 38 5 41 10 8 13 48 13
79 -1 20 -9 29 -9 41 1 12 10 16 10 19 -1 13 -41 14 -43 15 -21 1 25 31 31 31
6 0 -8 -4 -12 -10 -9 -6 4 -11 -9 -11 -32 -1 -23 -3 -29 -6 -15 -5 26 -9 27
-29 7 -8 -8 -21 -12 -29 -9 -9 4 -15 0 -15 -9 0 -35 -38 -26 -53 13 -3 8 -6 1
-6 -16 -1 -32 8 -39 64 -50 14 -3 16 -1 7 4 -18 12 12 36 34 28 15 -6 15 -8 2
-19 -21 -17 -29 -45 -15 -50 18 -7 -24 -36 -45 -32 -10 2 -16 0 -13 -5 8 -13
-43 -60 -64 -60 -14 0 -14 -2 -1 -10 13 -9 13 -10 0 -10 -31 -1 -157 -78 -168
-102 -2 -5 -9 -8 -15 -8 -16 -1 -67 -46 -67 -60 0 -5 -4 -10 -10 -10 -20 0 -9
17 60 90 38 41 70 78 70 82 0 4 14 21 30 38 17 17 28 35 25 40 -3 5 9 5 27 -1
43 -12 58 -11 58 2 0 5 -4 8 -9 5 -19 -12 -41 7 -52 45 -7 21 -16 39 -21 39
-5 0 -6 -5 -3 -11 4 -6 -2 -13 -14 -16 -22 -6 -27 -18 -11 -28 13 -8 13 -55 1
-55 -5 0 -11 3 -14 8 -2 4 -3 2 -2 -3 2 -6 -3 -16 -11 -22 -10 -10 -16 -10
-28 3 -9 8 -16 20 -16 25 0 6 -4 8 -10 4 -5 -3 -7 -12 -3 -20 3 -10 -1 -15
-12 -15 -12 0 -16 -6 -12 -20 3 -11 -2 -25 -11 -32 -14 -12 -15 -9 -9 21 5 25
3 37 -10 46 -20 15 -10 50 12 41 8 -3 17 -1 20 4 3 4 0 10 -7 12 -8 3 -4 13
11 29 34 36 64 79 54 79 -13 0 -27 -13 -46 -42 -43 -68 -55 3 -14 85 31 61 38
70 29 35 -5 -22 -4 -22 15 -5 11 9 23 17 27 17 8 0 38 28 35 32 -2 2 0 13 3
26 4 15 11 20 22 16 9 -3 16 -1 16 5 0 6 5 11 10 11 6 0 10 -6 10 -12z m2655
-9 c-4 -5 -1 -9 4 -9 6 0 11 -7 11 -15 0 -8 5 -15 10 -15 6 0 10 5 10 11 0 7
7 8 18 4 31 -12 122 -22 122 -13 0 5 4 6 10 3 6 -4 5 -11 -3 -20 -7 -8 -16
-10 -23 -4 -6 5 -14 6 -17 3 -3 -4 -20 -2 -36 4 -28 10 -31 9 -31 -9 0 -10 -5
-19 -11 -19 -5 0 -7 -4 -4 -10 9 -15 -1 -12 -45 10 -49 25 -53 25 -38 1 7 -11
16 -17 21 -14 5 3 3 -4 -5 -16 -14 -24 -33 -29 -25 -7 3 8 -1 17 -10 20 -9 4
-13 14 -10 26 3 13 -1 21 -15 26 -21 6 -21 41 1 36 6 -1 22 4 33 12 22 15 43
12 33 -5z m-2335 -21 c0 -7 -7 -22 -15 -32 -15 -20 -15 -20 -29 -1 -8 11 -11
24 -8 30 4 5 8 2 10 -7 5 -25 22 -23 22 2 0 11 5 20 10 20 6 0 10 -6 10 -12z
m1120 -8 c0 -5 -2 -10 -4 -10 -3 0 -8 5 -11 10 -3 6 -1 10 4 10 6 0 11 -4 11
-10z m-1843 -46 c-8 -8 -47 10 -47 22 0 12 5 11 25 -2 14 -9 24 -18 22 -20z
m843 -15 c0 -5 -5 -9 -12 -9 -6 0 -19 -7 -29 -16 -18 -17 -39 -12 -39 9 0 8 3
7 9 -2 14 -22 31 -3 31 37 l1 37 19 -24 c11 -13 20 -27 20 -32z m-773 19 c-3
-8 -6 -5 -6 6 -1 11 2 17 5 13 3 -3 4 -12 1 -19z m663 -3 c0 -8 -4 -15 -10
-15 -5 0 -7 7 -4 15 4 8 8 15 10 15 2 0 4 -7 4 -15z m940 -62 c-11 -17 -11
-17 -6 0 3 10 7 33 8 50 l1 32 4 -32 c2 -18 -1 -41 -7 -50z m-1537 54 c-3 -5
3 -6 17 -2 18 6 22 4 17 -8 -3 -10 1 -17 14 -20 10 -3 19 0 19 6 0 6 3 7 7 4
3 -4 0 -25 -7 -46 l-13 -39 -21 23 c-12 13 -34 27 -48 30 -19 5 -25 11 -21 23
5 11 2 14 -10 9 -18 -7 -20 -5 -12 15 3 7 19 13 35 14 16 1 27 -3 23 -9z m797
8 c0 -2 -10 -10 -22 -16 -21 -11 -22 -11 -9 4 13 16 31 23 31 12z m2264 -13
c14 -4 17 -2 11 9 -8 12 -6 12 8 0 10 -8 15 -16 13 -19 -8 -8 -75 8 -82 20 -5
8 -1 9 12 4 10 -5 28 -11 38 -14z m-3139 -2 c8 -13 -15 -13 -35 0 -12 8 -11
10 7 10 12 0 25 -4 28 -10z m629 -2 c-3 -4 -14 -8 -25 -8 -11 0 -18 4 -14 9 3
6 14 9 25 8 10 -1 16 -5 14 -9z m901 -17 c-3 -6 -11 -11 -17 -11 -6 0 -6 6 2
15 14 17 26 13 15 -4z m304 -46 l0 -20 -9 20 c-5 11 -9 27 -9 35 -1 13 0 13 9
0 5 -8 9 -24 9 -35z m-1249 15 c0 11 5 10 18 -6 10 -11 24 -18 32 -16 9 3 5
-6 -9 -22 -26 -28 -43 -30 -47 -5 -1 7 -5 28 -8 44 -5 23 -4 26 3 10 7 -14 10
-15 11 -5z m704 -16 c9 -8 16 -20 16 -25 0 -6 5 -7 12 -3 7 5 8 3 3 -5 -5 -10
-11 -8 -24 6 -9 10 -22 24 -30 31 -9 7 -10 12 -4 12 7 0 19 -7 27 -16z m-601
-18 c-3 -16 -10 -23 -19 -19 -13 5 -12 8 2 24 22 24 22 24 17 -5z m69 9 c0 -5
-5 -11 -11 -13 -6 -2 -11 4 -11 13 0 9 5 15 11 13 6 -2 11 -8 11 -13z m2238
-7 c0 -5 -4 -7 -9 -4 -5 4 -11 1 -13 -5 -4 -12 -38 -1 -38 13 0 6 7 8 15 4 8
-3 15 -1 15 4 0 5 7 7 15 4 8 -4 15 -10 15 -16z m-2280 -8 c0 -5 -5 -10 -11
-10 -5 0 -7 5 -4 10 3 6 8 10 11 10 2 0 4 -4 4 -10z m-962 -50 c-1 -16 -5 -30
-10 -30 -5 0 -20 -12 -33 -26 -15 -17 -25 -21 -25 -13 0 20 12 34 34 42 11 5
16 13 12 23 -7 17 0 34 14 34 5 0 8 -13 8 -30z m347 -4 c26 -20 16 -20 -23 0
-18 8 -32 20 -32 25 0 11 22 1 55 -25z m1266 1 c-10 -9 -11 -8 -5 6 3 10 9 15
12 12 3 -3 0 -11 -7 -18z m-746 -7 c-10 -11 -21 -17 -24 -14 -3 3 3 12 13 20
28 20 32 17 11 -6z m-65 0 c0 -5 -4 -10 -10 -10 -5 0 -10 5 -10 10 0 6 5 10
10 10 6 0 10 -4 10 -10z m2363 -17 c-7 -2 -19 -2 -25 0 -7 3 -2 5 12 5 14 0
19 -2 13 -5z m-1593 -24 c0 -11 -4 -18 -10 -14 -5 3 -7 12 -3 20 7 21 13 19
13 -6z m-817 -29 c-7 -24 -43 -48 -43 -28 0 18 12 34 30 41 8 3 16 6 17 6 0 1
-1 -8 -4 -19z m755 -18 c3 -9 -2 -10 -21 -3 -14 5 -28 7 -31 4 -3 -4 -6 -1 -6
6 0 16 52 10 58 -7z m62 14 c0 -3 -4 -8 -10 -11 -5 -3 -10 -1 -10 4 0 6 5 11
10 11 6 0 10 -2 10 -4z m1400 -11 c15 -18 -1 -20 -18 -3 -9 9 -12 9 -12 -3 0
-8 5 -20 11 -26 7 -7 5 -12 -8 -17 -9 -4 -14 -4 -10 0 14 15 -15 33 -44 27
-34 -7 -39 9 -6 25 32 16 73 14 87 -3z m-2497 -56 c-9 -9 -12 -7 -10 9 1 14 5
18 11 12 7 -7 6 -14 -1 -21z m-603 11 c0 -5 -2 -10 -4 -10 -3 0 -8 5 -11 10
-3 6 -1 10 4 10 6 0 11 -4 11 -10z m3535 0 c3 -5 -1 -10 -10 -10 -9 0 -13 5
-10 10 3 6 8 10 10 10 2 0 7 -4 10 -10z m-45 -10 c12 -8 12 -10 -5 -10 -11 0
-27 5 -35 10 -12 8 -12 10 5 10 11 0 27 -5 35 -10z m-294 -15 c16 -8 22 -15
13 -15 -8 0 -24 7 -35 15 -25 19 -14 19 22 0z m-2921 -15 c7 0 15 -7 19 -15 4
-12 2 -13 -12 -6 -9 5 -30 7 -45 4 -17 -3 -27 -1 -27 6 0 14 44 32 48 20 2 -5
10 -9 17 -9z m2733 -9 c27 -24 28 -31 2 -24 -11 3 -25 14 -31 24 -12 24 0 24
29 0z m512 -17 c0 -8 -4 -14 -10 -14 -5 0 -10 9 -10 21 0 11 5 17 10 14 6 -3
10 -13 10 -21z m-240 -38 c-1 -20 -2 -20 -15 4 -19 33 -19 46 0 30 8 -7 15
-22 15 -34z m150 33 c0 -4 -4 -10 -10 -14 -10 -6 -3 -35 8 -33 22 2 22 -4 2
-22 -12 -11 -28 -16 -34 -12 -6 3 -14 7 -18 8 -5 1 -11 3 -15 4 -5 2 -17 3
-28 4 -11 1 -21 9 -23 21 -3 17 -1 18 8 5 9 -11 13 -12 17 -2 2 6 9 10 14 6 5
-3 9 -1 9 5 0 5 -5 13 -12 17 -8 5 -6 10 7 14 26 9 75 8 75 -1z m-3233 -5 c-3
-3 -12 -4 -19 -1 -8 3 -5 6 6 6 11 1 17 -2 13 -5z m753 -14 c0 -5 -7 -7 -15
-4 -8 4 -15 8 -15 10 0 2 7 4 15 4 8 0 15 -4 15 -10z m-301 -21 c-16 -10 -23
-4 -14 10 3 6 11 8 17 5 6 -4 5 -9 -3 -15z m331 7 c-1 -5 25 -24 57 -42 32
-18 53 -34 48 -34 -6 0 -19 6 -30 14 -11 7 -35 17 -52 21 -29 6 -33 4 -33 -14
0 -12 -6 -21 -15 -21 -17 0 -21 36 -5 43 6 3 5 4 -2 3 -7 -1 -15 -13 -19 -27
-4 -13 -7 -18 -8 -11 -1 6 -5 12 -11 12 -5 0 -7 -6 -4 -14 3 -8 0 -17 -6 -21
-6 -4 -11 -1 -9 6 3 28 -2 39 -18 39 -16 1 -15 2 2 12 11 7 31 13 45 14 14 2
29 10 35 19 10 15 28 16 25 1z m2490 -6 c0 -5 -2 -10 -4 -10 -3 0 -8 5 -11 10
-3 6 -1 10 4 10 6 0 11 -4 11 -10z m-255 -10 c-3 -5 -14 -10 -23 -9 -14 0 -13
2 3 9 27 11 27 11 20 0z m25 -20 c0 -5 -5 -10 -11 -10 -5 0 -7 5 -4 10 3 6 8
10 11 10 2 0 4 -4 4 -10z m-1516 -52 c-11 -36 -21 -147 -12 -142 4 3 8 0 8 -5
0 -6 -8 -11 -17 -11 -14 0 -15 -2 -4 -9 9 -6 12 -18 7 -36 -4 -15 -10 -25 -13
-22 -9 9 -9 237 0 237 4 0 7 9 7 21 0 19 1 19 16 5 10 -11 13 -23 8 -38z
m-874 38 c0 -2 -7 -7 -16 -10 -8 -3 -12 -2 -9 4 6 10 25 14 25 6z m1493 -67
c35 -46 35 -46 11 -46 -39 0 -81 67 -57 90 3 4 7 6 9 5 1 -2 18 -24 37 -49z
m-1463 24 c0 -7 6 -13 13 -13 7 -1 6 -5 -5 -13 -11 -9 -13 -18 -7 -28 7 -13 2
-16 -24 -17 -18 -1 -52 -8 -76 -17 -47 -16 -72 -12 -27 5 15 5 32 10 37 10 6
0 8 4 4 10 -3 5 -11 8 -18 6 -7 -2 -34 -10 -60 -16 -41 -11 -49 -17 -54 -42
-3 -17 -9 -25 -13 -18 -10 16 -1 57 16 70 7 7 33 12 57 13 25 1 43 5 41 8 -2
4 4 6 14 5 9 0 16 5 15 12 -2 6 3 12 11 12 8 0 16 6 19 14 7 17 57 16 57 -1z
m2593 6 c-8 -8 -19 -8 -40 -1 -28 10 -28 10 12 11 28 1 36 -2 28 -10z m-2538
-9 c3 -5 -1 -10 -9 -10 -9 0 -16 5 -16 10 0 6 4 10 9 10 6 0 13 -4 16 -10z
m2013 -9 c32 -17 138 -34 222 -37 128 -3 133 -6 35 -18 -49 -6 -92 -8 -95 -5
-3 4 -16 9 -30 10 -17 3 -25 -1 -25 -11 0 -9 9 -15 22 -15 12 0 25 -4 29 -8 4
-4 0 -7 -9 -7 -13 0 -11 -6 9 -27 13 -14 22 -28 19 -31 -3 -3 -26 -7 -51 -8
-26 -2 -57 -10 -70 -19 -13 -8 -33 -15 -45 -15 -12 0 -28 -8 -36 -17 -14 -17
-14 -17 -9 0 3 11 0 17 -9 17 -8 0 -15 -4 -15 -10 0 -5 -18 -14 -39 -21 -33
-10 -38 -14 -26 -25 7 -8 22 -11 32 -8 17 5 17 5 1 -9 -20 -16 -63 -16 -63 0
0 6 -3 15 -7 19 -5 4 -8 -7 -8 -24 0 -16 6 -33 13 -35 6 -3 -5 -6 -25 -6 -21
-1 -38 -5 -38 -10 0 -18 -33 -21 -99 -10 -36 6 -68 13 -70 15 -2 2 4 10 13 19
9 9 16 21 16 26 0 10 -41 -10 -52 -26 -4 -5 -8 -6 -8 -2 0 4 -10 -1 -22 -13
-12 -11 -29 -20 -37 -20 -13 1 -12 4 4 16 20 16 20 16 -1 10 -16 -5 -23 -2
-26 12 -3 12 -22 23 -51 31 -33 10 -44 17 -40 28 4 11 0 14 -18 11 -16 -2 -23
1 -21 11 2 9 -3 11 -13 7 -9 -3 -39 3 -68 14 -29 11 -72 20 -97 21 -43 1 -44
2 -17 12 15 6 27 14 27 19 0 4 7 8 15 8 9 0 20 11 25 24 10 26 50 55 50 36 0
-5 -4 -10 -10 -10 -5 0 -10 -5 -10 -11 0 -6 6 -9 14 -6 7 3 31 2 52 -3 22 -5
60 -12 87 -15 31 -4 47 -11 47 -21 0 -8 10 -14 23 -14 34 0 67 -11 62 -20 -3
-5 4 -11 15 -15 11 -3 20 -11 20 -16 0 -6 5 -7 10 -4 6 3 10 11 10 16 0 6 -4
8 -9 5 -5 -3 -15 1 -22 10 -11 13 -11 15 2 14 36 -6 49 1 49 24 0 27 -37 79
-51 71 -5 -4 -6 0 -3 8 3 8 1 18 -5 22 -25 15 -6 24 67 30 42 4 91 11 107 16
36 10 230 3 253 -10z m-2733 -11 c3 -5 1 -10 -4 -10 -6 0 -11 5 -11 10 0 6 2
10 4 10 3 0 8 -4 11 -10z m535 0 c0 -5 -7 -10 -16 -10 -8 0 -12 5 -9 10 3 6
10 10 16 10 5 0 9 -4 9 -10z m430 -20 c16 -13 20 -20 10 -19 -16 0 -50 22 -50
33 0 11 14 6 40 -14z m600 -70 c0 -5 -2 -10 -4 -10 -3 0 -8 5 -11 10 -3 6 -1
10 4 10 6 0 11 -4 11 -10z m1432 -80 c-2 -8 3 -10 14 -6 14 5 15 4 4 -9 -11
-13 -8 -13 19 -4 18 6 35 9 38 5 11 -10 -2 -16 -43 -19 -21 -1 -42 -6 -45 -11
-4 -5 -17 -2 -29 7 -22 16 -82 13 -88 -4 -2 -5 -11 -9 -19 -9 -9 0 -13 6 -9
15 3 9 0 15 -9 15 -8 0 -15 -4 -15 -10 0 -5 -4 -10 -10 -10 -17 0 -11 15 13
30 39 26 185 34 179 10z m-2467 0 c-3 -5 -10 -10 -16 -10 -5 0 -9 5 -9 10 0 6
7 10 16 10 8 0 12 -4 9 -10z m96 -7 c13 -15 12 -15 -11 -3 -34 17 -36 20 -18
20 9 0 22 -7 29 -17z m849 -84 c0 -11 -4 -18 -10 -14 -5 3 -7 12 -3 20 7 21
13 19 13 -6z m1660 11 c0 -5 -5 -10 -11 -10 -5 0 -7 5 -4 10 3 6 8 10 11 10 2
0 4 -4 4 -10z m-1635 -20 c3 -5 1 -10 -4 -10 -6 0 -11 5 -11 10 0 6 2 10 4 10
3 0 8 -4 11 -10z m1350 0 c3 -6 -1 -7 -9 -4 -18 7 -21 14 -7 14 6 0 13 -4 16
-10z m-157 -25 c-3 -3 -9 2 -12 12 -6 14 -5 15 5 6 7 -7 10 -15 7 -18z m39 0
c0 -8 -4 -15 -9 -15 -10 0 -11 14 -1 23 9 10 10 9 10 -8z m-115 -12 c-6 -3
-10 -9 -7 -14 4 -5 -2 -6 -11 -2 -16 6 -15 7 1 20 10 7 21 10 24 7 3 -4 0 -9
-7 -11z m-1134 -28 c-1 -14 -6 -25 -10 -25 -10 0 -10 13 -2 34 9 23 14 19 12
-9z m1092 15 c0 -5 -9 -10 -20 -10 -11 0 -20 5 -20 10 0 6 9 10 20 10 11 0 20
-4 20 -10z m118 -15 c-1 -14 -6 -25 -11 -25 -5 0 -7 7 -3 15 3 8 0 15 -7 15
-8 0 -6 4 3 10 20 13 20 13 18 -15z m-85 -18 c15 0 27 -4 27 -8 0 -15 -46 -10
-76 7 -26 14 -27 15 -4 9 14 -4 37 -8 53 -8z m-272 -24 c10 -11 10 -17 3 -20
-6 -2 -9 -16 -7 -31 4 -22 2 -24 -7 -12 -10 12 -11 11 -7 -7 6 -26 -5 -30 -23
-8 -7 8 -9 23 -4 37 4 13 7 31 5 41 -3 22 22 22 40 0z m964 -43 c3 -5 1 -10
-4 -10 -6 0 -11 5 -11 10 0 6 2 10 4 10 3 0 8 -4 11 -10z m-9 -35 c-16 -17
-36 -20 -36 -6 0 8 17 16 43 20 5 0 2 -6 -7 -14z m-507 -31 c-17 -21 -31 -17
-17 5 7 11 16 17 20 14 5 -2 4 -11 -3 -19z m398 -11 c-2 -2 -31 0 -63 4 l-59
8 50 5 c43 5 84 -5 72 -17z m-647 -54 c0 -6 -4 -7 -10 -4 -5 3 -10 11 -10 16
0 6 5 7 10 4 6 -3 10 -11 10 -16z m855 -9 c3 -5 2 -10 -4 -10 -5 0 -13 5 -16
10 -3 6 -2 10 4 10 5 0 13 -4 16 -10z"/>
<path d="M3050 2530 c0 -5 5 -10 11 -10 5 0 7 5 4 10 -3 6 -8 10 -11 10 -2 0
-4 -4 -4 -10z"/>
<path d="M946 1412 c-3 -6 -1 -14 5 -17 14 -9 20 -2 10 14 -6 8 -11 9 -15 3z"/>
<path d="M840 1390 c20 -13 33 -13 25 0 -3 6 -14 10 -23 10 -15 0 -15 -2 -2
-10z"/>
<path d="M778 1373 c7 -3 16 -2 19 1 4 3 -2 6 -13 5 -11 0 -14 -3 -6 -6z"/>
<path d="M287 1059 c7 -7 15 -10 18 -7 3 3 -2 9 -12 12 -14 6 -15 5 -6 -5z"/>
<path d="M789 1023 c-13 -16 -12 -17 4 -4 9 7 17 15 17 17 0 8 -8 3 -21 -13z"/>
<path d="M954 1024 c3 -8 6 -18 6 -20 0 -3 5 -2 10 1 15 9 12 22 -6 29 -12 5
-15 2 -10 -10z"/>
<path d="M693 1013 c-15 -5 -18 -43 -4 -43 5 0 11 10 14 22 7 26 6 27 -10 21z"/>
<path d="M910 951 c0 -5 5 -13 10 -16 6 -3 10 -2 10 4 0 5 -4 13 -10 16 -5 3
-10 2 -10 -4z"/>
<path d="M740 935 c7 -8 16 -15 21 -15 5 0 9 7 9 15 0 9 -9 15 -21 15 -18 0
-19 -2 -9 -15z"/>
<path d="M815 820 c-3 -6 1 -7 9 -4 18 7 21 14 7 14 -6 0 -13 -4 -16 -10z"/>
<path d="M3053 574 c5 -5 23 -14 40 -21 25 -9 27 -12 11 -12 -23 -1 -48 -24
-37 -34 11 -12 23 -7 23 9 0 12 6 15 25 10 27 -7 46 17 29 34 -12 12 -101 25
-91 14z"/>
<path d="M2998 503 c7 -3 16 -2 19 1 4 3 -2 6 -13 5 -11 0 -14 -3 -6 -6z"/>
<path d="M2725 380 c-11 -5 -15 -9 -8 -9 7 -1 10 -8 6 -17 -5 -13 0 -14 33 -8
22 4 63 7 92 7 29 0 54 2 56 6 2 3 -28 7 -67 8 -41 1 -73 6 -75 12 -4 13 -10
13 -37 1z"/>
<path d="M2988 383 c7 -3 16 -2 19 1 4 3 -2 6 -13 5 -11 0 -14 -3 -6 -6z"/>
<path d="M2808 273 c7 -3 16 -2 19 1 4 3 -2 6 -13 5 -11 0 -14 -3 -6 -6z"/>
<path d="M1772 3975 c12 -26 38 -34 38 -12 0 17 -20 37 -37 37 -10 0 -10 -5
-1 -25z"/>
<path d="M1850 3979 c0 -11 5 -17 10 -14 6 3 10 13 10 21 0 8 -4 14 -10 14 -5
0 -10 -9 -10 -21z"/>
<path d="M1897 3980 c5 -20 13 -24 45 -21 10 1 26 -2 36 -8 21 -11 34 -5 50
24 11 19 11 18 12 -7 0 -27 19 -41 21 -15 1 6 5 1 9 -13 7 -22 8 -20 9 15 1
39 0 40 -33 42 -25 1 -36 -3 -39 -15 -4 -15 -5 -15 -6 1 -1 20 -50 24 -69 5
-9 -9 -12 -9 -12 0 0 7 -6 12 -14 12 -9 0 -12 -7 -9 -20z"/>
<path d="M2090 3989 c0 -5 4 -8 9 -5 5 3 11 -4 15 -16 4 -16 8 -20 16 -12 15
15 1 44 -21 44 -10 0 -19 -5 -19 -11z"/>
<path d="M2151 3971 c-1 -24 2 -32 9 -25 7 7 7 19 1 35 -9 23 -10 22 -10 -10z"/>
<path d="M2090 3954 c0 -8 5 -12 10 -9 6 4 8 11 5 16 -9 14 -15 11 -15 -7z"/>
<path d="M1694 3919 c-5 -9 0 -10 19 -5 19 4 27 2 31 -11 4 -14 4 -14 3 2 -2
23 -41 33 -53 14z"/>
<path d="M1840 3920 c-8 -5 -12 -12 -9 -15 8 -8 39 5 39 16 0 11 -11 11 -30
-1z"/>
<path d="M1950 3915 c-10 -12 -10 -15 3 -15 8 0 17 7 21 15 3 8 2 15 -3 15 -5
0 -14 -7 -21 -15z"/>
<path d="M1767 3903 c6 -15 39 -18 47 -4 3 5 -7 11 -23 13 -21 3 -28 1 -24 -9z"/>
<path d="M2076 3888 c-3 -13 -1 -27 4 -32 7 -7 10 -4 10 6 0 9 3 23 6 32 3 9
2 16 -4 16 -5 0 -12 -10 -16 -22z"/>
<path d="M1800 3854 c0 -8 5 -12 10 -9 6 4 8 11 5 16 -9 14 -15 11 -15 -7z"/>
<path d="M2531 3854 c0 -11 3 -14 6 -6 3 7 2 16 -1 19 -3 4 -6 -2 -5 -13z"/>
<path d="M1825 3810 c3 -5 8 -10 11 -10 2 0 4 5 4 10 0 6 -5 10 -11 10 -5 0
-7 -4 -4 -10z"/>
<path d="M1533 3760 c-1 -11 2 -20 8 -20 5 0 9 9 9 20 0 11 -4 20 -8 20 -4 0
-8 -9 -9 -20z"/>
<path d="M2521 3764 c0 -11 3 -14 6 -6 3 7 2 16 -1 19 -3 4 -6 -2 -5 -13z"/>
<path d="M1570 3762 c0 -10 22 -32 32 -32 4 0 5 6 2 14 -6 16 -34 30 -34 18z"/>
<path d="M2081 3754 c0 -11 3 -14 6 -6 3 7 2 16 -1 19 -3 4 -6 -2 -5 -13z"/>
<path d="M1624 3729 c-3 -5 -1 -9 5 -9 5 0 16 -3 25 -6 9 -3 16 -2 16 4 0 13
-38 23 -46 11z"/>
<path d="M2201 3724 c0 -11 3 -14 6 -6 3 7 2 16 -1 19 -3 4 -6 -2 -5 -13z"/>
<path d="M2112 3688 c2 -6 10 -14 16 -16 7 -2 10 2 6 12 -7 18 -28 22 -22 4z"/>
<path d="M1500 3660 c0 -19 3 -21 12 -12 9 9 9 15 0 24 -9 9 -12 7 -12 -12z"/>
<path d="M2315 3630 c3 -5 8 -10 11 -10 2 0 4 5 4 10 0 6 -5 10 -11 10 -5 0
-7 -4 -4 -10z"/>
<path d="M2880 3531 c0 -6 4 -13 10 -16 6 -3 7 1 4 9 -7 18 -14 21 -14 7z"/>
<path d="M1330 3225 c0 -8 -6 -15 -12 -15 -9 0 -8 -3 2 -10 11 -7 17 -5 22 8
10 25 9 32 -2 32 -5 0 -10 -7 -10 -15z"/>
<path d="M1002 3151 c2 -7 7 -12 11 -12 12 1 9 15 -3 20 -7 2 -11 -2 -8 -8z"/>
<path d="M2541 3115 c0 -5 6 -21 14 -35 8 -14 14 -20 14 -15 0 6 -6 21 -14 35
-8 14 -14 21 -14 15z"/>
<path d="M1282 3098 c-14 -14 -16 -28 -3 -28 9 0 24 30 18 36 -2 2 -9 -2 -15
-8z"/>
<path d="M950 2962 c0 -15 4 -20 16 -15 9 3 12 9 7 12 -4 3 -11 10 -15 15 -5
5 -8 0 -8 -12z"/>
<path d="M910 2904 c0 -8 5 -12 10 -9 6 4 8 11 5 16 -9 14 -15 11 -15 -7z"/>
<path d="M3070 2888 c0 -36 4 -35 14 5 4 16 2 27 -4 27 -5 0 -10 -14 -10 -32z"/>
<path d="M940 2865 c-5 -14 -14 -23 -20 -20 -6 3 -10 -5 -10 -18 0 -22 16 -37
41 -37 5 0 9 6 9 14 0 8 6 17 13 19 9 4 9 7 -1 15 -7 5 -10 16 -7 24 4 9 2 19
-4 23 -6 3 -15 -5 -21 -20z"/>
<path d="M1050 2770 c0 -19 3 -21 12 -12 9 9 9 15 0 24 -9 9 -12 7 -12 -12z"/>
<path d="M925 2769 c-10 -15 3 -25 16 -12 7 7 7 13 1 17 -6 3 -14 1 -17 -5z"/>
<path d="M1010 2735 c1 -26 2 -28 11 -12 8 14 8 22 0 30 -8 8 -11 3 -11 -18z"/>
<path d="M2468 2683 c7 -3 16 -2 19 1 4 3 -2 6 -13 5 -11 0 -14 -3 -6 -6z"/>
<path d="M920 2613 c0 -13 5 -23 10 -23 13 0 13 11 0 30 -8 12 -10 11 -10 -7z"/>
<path d="M944 2569 c15 -9 16 -13 5 -20 -11 -7 -11 -9 2 -9 17 0 32 24 22 34
-4 3 -16 6 -27 6 -20 -1 -20 -1 -2 -11z"/>
<path d="M900 2550 c0 -5 5 -10 11 -10 5 0 7 5 4 10 -3 6 -8 10 -11 10 -2 0
-4 -4 -4 -10z"/>
<path d="M1174 2538 l-19 -23 23 19 c21 18 27 26 19 26 -2 0 -12 -10 -23 -22z"/>
<path d="M2432 2540 c0 -14 2 -19 5 -12 2 6 2 18 0 25 -3 6 -5 1 -5 -13z"/>
<path d="M1210 2530 c8 -5 20 -10 25 -10 6 0 3 5 -5 10 -8 5 -19 10 -25 10 -5
0 -3 -5 5 -10z"/>
<path d="M915 2510 c3 -5 8 -10 11 -10 2 0 4 5 4 10 0 6 -5 10 -11 10 -5 0 -7
-4 -4 -10z"/>
<path d="M1170 2500 c-12 -12 -25 -18 -31 -15 -5 4 -8 3 -7 -2 1 -4 -8 -28
-20 -52 -12 -25 -22 -46 -22 -49 0 -9 28 26 34 43 8 25 46 68 72 83 10 6 13
12 7 12 -7 0 -22 -9 -33 -20z"/>
<path d="M2761 2454 c0 -11 3 -14 6 -6 3 7 2 16 -1 19 -3 4 -6 -2 -5 -13z"/>
<path d="M873 2422 c-8 -5 -9 -13 -3 -22 7 -12 12 -12 22 -2 14 14 -1 35 -19
24z"/>
<path d="M2266 2394 c-4 -14 -5 -28 -3 -31 3 -2 8 8 11 23 4 14 5 28 3 31 -3
2 -8 -8 -11 -23z"/>
<path d="M1388 2334 c-4 -5 2 -29 12 -52 23 -51 47 -58 26 -8 -11 26 -11 36
-3 40 7 2 5 5 -5 5 -9 1 -18 6 -20 13 -3 7 -7 8 -10 2z"/>
<path d="M2385 2310 c-4 -17 -5 -34 -2 -36 2 -3 7 10 11 27 3 18 4 34 2 36 -2
3 -7 -10 -11 -27z"/>
<path d="M1042 2280 c0 -14 2 -19 5 -12 2 6 2 18 0 25 -3 6 -5 1 -5 -13z"/>
<path d="M2242 2280 c0 -14 2 -19 5 -12 2 6 2 18 0 25 -3 6 -5 1 -5 -13z"/>
<path d="M1126 2274 c-3 -9 -1 -12 4 -9 6 3 10 -1 10 -10 0 -9 11 -32 25 -53
16 -24 21 -38 14 -43 -8 -4 -4 -14 9 -27 11 -11 24 -17 28 -14 4 4 5 0 1 -9
-3 -9 -1 -21 4 -26 6 -6 11 -27 12 -47 1 -20 6 -36 10 -36 5 0 22 -9 38 -21
32 -23 49 -18 49 13 0 17 2 18 15 8 16 -13 19 -8 15 24 -1 10 3 17 8 15 22 -9
132 -112 132 -125 0 -7 5 -16 10 -19 6 -4 9 -3 8 2 -6 16 7 15 45 -3 31 -15
43 -16 69 -6 35 13 53 2 64 -42 5 -20 12 -26 33 -26 14 0 33 5 41 10 12 8 10
10 -9 10 -24 0 -24 0 -5 21 l19 21 22 -26 c26 -30 69 -35 76 -8 4 16 5 16 6
-1 0 -10 5 -16 10 -12 9 5 -35 123 -50 135 -28 23 -62 161 -54 219 3 20 -3 7
-13 -29 -28 -100 -128 -258 -150 -235 -4 4 -1 10 6 12 7 3 17 14 23 26 9 18 9
20 -1 10 -7 -6 -19 -9 -27 -6 -8 3 -19 0 -24 -8 -9 -15 -59 -21 -59 -7 0 4 -7
8 -15 8 -8 0 -15 6 -15 13 0 9 -3 8 -9 -2 -6 -9 -11 -10 -15 -2 -4 6 -4 11 1
11 4 0 -6 8 -24 16 -51 26 -267 246 -254 260 3 4 1 4 -5 1 -6 -3 -24 3 -41 13
-27 16 -32 17 -37 4z m191 -271 c-8 -7 -37 9 -31 19 3 5 12 4 20 -3 8 -6 13
-14 11 -16z m438 -123 c-3 -5 -12 -10 -18 -10 -7 0 -6 4 3 10 19 12 23 12 15
0z"/>
<path d="M2130 2256 c0 -23 16 -27 17 -5 1 10 -2 19 -8 19 -5 0 -9 -6 -9 -14z"/>
<path d="M845 2150 c-4 -6 -13 -9 -21 -6 -10 4 -14 -3 -14 -24 0 -39 21 -39
39 1 13 29 10 52 -4 29z"/>
<path d="M2535 2073 c-11 -24 -14 -86 -4 -76 12 12 28 93 19 93 -4 0 -11 -8
-15 -17z"/>
<path d="M2496 2013 c-6 -14 -5 -15 5 -6 7 7 10 15 7 18 -3 3 -9 -2 -12 -12z"/>
<path d="M1250 1950 c0 -5 7 -10 15 -10 8 0 15 5 15 10 0 6 -7 10 -15 10 -8 0
-15 -4 -15 -10z"/>
<path d="M1305 1930 c4 -6 11 -8 16 -5 14 9 11 15 -7 15 -8 0 -12 -5 -9 -10z"/>
<path d="M1132 1891 c-16 -10 -12 -53 6 -59 7 -2 12 6 12 23 0 17 5 25 13 22
6 -2 11 -11 9 -21 -4 -22 24 -20 47 3 23 23 16 35 -10 20 -15 -7 -21 -6 -25 6
-7 16 -31 20 -52 6z"/>
<path d="M1295 1880 c-4 -6 13 -10 45 -10 28 0 63 -6 78 -14 39 -20 102 -19
102 3 0 14 -2 14 -10 1 -5 -8 -10 -10 -10 -4 0 6 -12 16 -27 23 -24 11 -25 10
-13 -4 20 -24 7 -26 -35 -5 -41 21 -120 27 -130 10z"/>
<path d="M716 1867 c3 -10 9 -15 12 -12 3 3 0 11 -7 18 -10 9 -11 8 -5 -6z"/>
<path d="M760 1850 c0 -5 5 -10 10 -10 6 0 10 5 10 10 0 6 -4 10 -10 10 -5 0
-10 -4 -10 -10z"/>
<path d="M804 1829 c-3 -6 -2 -15 3 -20 5 -5 9 -1 9 11 0 23 -2 24 -12 9z"/>
<path d="M2278 1807 c-3 -19 -2 -25 4 -19 6 6 8 18 6 28 -3 14 -5 12 -10 -9z"/>
<path d="M2371 1814 c0 -11 3 -14 6 -6 3 7 2 16 -1 19 -3 4 -6 -2 -5 -13z"/>
<path d="M1455 1811 c-3 -5 -1 -12 4 -15 5 -3 11 1 15 9 6 16 -9 21 -19 6z"/>
<path d="M1186 1801 c-4 -7 -5 -15 -2 -18 9 -9 19 4 14 18 -4 11 -6 11 -12 0z"/>
<path d="M2121 1794 c0 -11 3 -14 6 -6 3 7 2 16 -1 19 -3 4 -6 -2 -5 -13z"/>
<path d="M2361 1783 c-1 -6 -4 -20 -7 -30 -5 -17 -5 -17 6 0 6 10 9 23 6 30
-3 9 -5 9 -5 0z"/>
<path d="M625 1740 c-3 -5 1 -10 10 -10 9 0 13 5 10 10 -3 6 -8 10 -10 10 -2
0 -7 -4 -10 -10z"/>
<path d="M2251 1684 c0 -11 3 -14 6 -6 3 7 2 16 -1 19 -3 4 -6 -2 -5 -13z"/>
<path d="M556 1672 c-3 -5 15 -8 39 -8 25 1 45 4 45 9 0 10 -78 9 -84 -1z"/>
<path d="M2241 1644 c0 -11 3 -14 6 -6 3 7 2 16 -1 19 -3 4 -6 -2 -5 -13z"/>
<path d="M2676 1645 c-3 -8 -1 -15 4 -15 6 0 10 7 10 15 0 8 -2 15 -4 15 -2 0
-6 -7 -10 -15z"/>
<path d="M1485 1570 c-8 -13 5 -13 25 0 13 8 13 10 -2 10 -9 0 -20 -4 -23 -10z"/>
<path d="M2788 1363 c7 -3 16 -2 19 1 4 3 -2 6 -13 5 -11 0 -14 -3 -6 -6z"/>
<path d="M2666 1298 c-8 -12 -18 -36 -22 -53 -5 -23 0 -19 20 19 28 50 29 76
2 34z"/>
<path d="M2850 1193 c-33 -6 -51 -23 -24 -23 11 0 29 7 40 15 10 8 17 14 14
13 -3 0 -16 -3 -30 -5z"/>
<path d="M2820 1080 c8 -5 22 -9 30 -9 10 0 8 3 -5 9 -27 12 -43 12 -25 0z"/>
<path d="M3451 204 c0 -11 3 -14 6 -6 3 7 2 16 -1 19 -3 4 -6 -2 -5 -13z"/>
<path d="M3431 174 c10 -13 10 -17 -2 -25 -9 -5 -10 -9 -2 -9 6 0 14 4 17 9 8
12 -4 41 -16 41 -6 0 -5 -7 3 -16z"/>
<path d="M3326 161 c-3 -5 1 -12 10 -15 21 -8 56 3 49 15 -8 12 -52 12 -59 0z"/>
<path d="M3500 150 c0 -5 5 -10 11 -10 5 0 7 5 4 10 -3 6 -8 10 -11 10 -2 0
-4 -4 -4 -10z"/>
<path d="M2313 38 c2 -7 10 -12 16 -10 6 1 11 -6 11 -15 0 -9 3 -14 6 -10 10
10 -7 47 -23 47 -8 0 -13 -6 -10 -12z"/>
<path d="M3150 36 c0 -2 7 -6 15 -10 8 -3 15 -1 15 4 0 6 -7 10 -15 10 -8 0
-15 -2 -15 -4z"/>
<path d="M3465 10 c-4 -6 6 -10 22 -10 22 0 25 2 13 10 -19 12 -27 12 -35 0z"/>
</g>
</svg>
